<?xml version="1.0" encoding="UTF-8" standalone="no"?>
<svg width="96px" height="54px" viewBox="0 0 96 54" version="1.1" xmlns="http://www.w3.org/2000/svg" xmlns:xlink="http://www.w3.org/1999/xlink" xmlns:sketch="http://www.bohemiancoding.com/sketch/ns">
    <!-- Generator: Sketch 3.3.3 (12081) - http://www.bohemiancoding.com/sketch -->
    <title>sidebar_logo</title>
    <desc>Created with Sketch.</desc>
    <defs></defs>
    <g id="Page-1" stroke="none" stroke-width="1" fill="none" fill-rule="evenodd" sketch:type="MSPage">
        <g id="Desktop-HD" sketch:type="MSArtboardGroup" transform="translate(-77.000000, -33.000000)" fill="#2FB1FF">
            <g id="Logo-and-Title" sketch:type="MSLayerGroup" transform="translate(38.000000, 33.000000)">
                <g id="Logo-group" transform="translate(39.000000, 0.000000)" sketch:type="MSShapeGroup">
                    <g id="Logo">
                        <path d="M54.6926466,8.3401165 C52.2805479,12.2071456 41.1861041,29.6693301 35.3448329,38.9232524 C33.4629699,41.9050485 31.9448548,44.3316408 31.0903233,45.6832136 C27.9538849,50.6441359 24.4118795,52.6893204 18.8643945,52.6893204 L5.89019178,52.6893204 C8.85961644,50.8543689 11.2622466,48.4309223 13.1648877,45.5083689 C19.9009315,35.159767 31.2126247,17.6008544 37.3153315,7.97181553 C38.8697425,5.51927184 40.5290959,3.89009709 42.5374685,2.85518447 C44.5758247,1.80506796 47.0507836,1.31067961 50.3263562,1.31067961 C50.3263562,1.31067961 57.8193534,1.26690291 61.939726,1.26690291 C58.3890411,3.01456311 56.6794521,5.15516505 54.6926466,8.3401165 L54.6926466,8.3401165 Z M50.3263562,0 C43.488789,0 39.4909808,2.07454369 36.2035726,7.26116505 C29.8957151,17.2139417 18.5337863,34.8520194 12.0615452,44.7950971 C9.46823014,48.7790388 5.69845479,51.9029126 0.26169863,54 L18.8643945,54 C24.9171288,54 28.8691726,51.654932 32.2028712,46.3818058 C35.7696,40.7403786 50.8992,16.7323981 55.8020384,9.05469903 C58.9150685,4.19417476 61.8952767,1.92250485 67.9882521,0 L50.3263562,0 L50.3263562,0 Z" id="Fill-1"></path>
                        <path d="M90.1902904,1.31067961 C86.706411,3.27617476 85.2156493,5.22934951 82.9187507,8.25203883 C80.1818301,11.8537864 76.3741808,17.5418738 74.4305096,20.9323398 C71.7312,25.6405631 71.7664438,28.7209223 74.5706959,33.1400097 C76.6387726,36.3986214 80.4895562,42.2846214 82.8114411,45.7115243 C85.1180712,49.1156214 86.9055123,51.1165049 89.6324384,52.6893204 L76.9717479,52.6893204 C72.0486575,52.6893204 68.5529425,50.8079709 65.6374356,46.6379126 C61.9042192,41.2995146 58.3950904,35.8234951 56.3559452,32.4888641 C53.8865096,28.4514466 53.8318027,25.5357087 56.1534247,21.7457476 C58.3075068,18.2294563 62.4042082,11.6406699 65.6358575,7.03782524 C68.5655671,2.86462136 71.7085808,1.31067961 76.9717479,1.31067961 L90.1902904,1.31067961 L90.1902904,1.31067961 Z M76.9717479,0 C71.1715068,0 67.6818411,1.83468932 64.5582904,6.28366019 C61.7427288,10.2940777 58.0416,16.1433786 55.0308822,21.0576408 C52.5148932,25.1645243 52.4270466,28.5722913 55.2328767,33.1601942 C57.5747507,36.9894757 61.1212274,42.4720485 64.5582904,47.3870971 C67.5319233,51.6399903 71.2832877,54 76.9717479,54 L95.7461918,54 C89.490411,51.6407767 87.3205479,50.0241845 83.9013699,44.978068 C81.5729096,41.541466 77.7655233,35.7327961 75.6821918,32.4503301 C73.1175452,28.4087184 73.1175452,25.8694078 75.5722521,21.5876796 C77.3741589,18.4451942 81.1302575,12.7796505 83.9671233,9.04604854 C87.3200219,4.63351456 89.8625753,2.2278932 95.7461918,0 L76.9717479,0 L76.9717479,0 Z" id="Fill-2"></path>
                    </g>
                </g>
            </g>
        </g>
    </g>
</svg>